<svg preserveAspectRatio="none" width="100%" height="100%" overflow="visible" style="display: block;" viewBox="0 0 86.9291 43.6522" fill="none" xmlns="http://www.w3.org/2000/svg">
<g id="Group">
<path id="Vector" d="M14.0325 16.8235C13.6542 16.7673 13.2709 16.8338 12.8825 17.0179C12.4235 17.2583 11.9443 17.4271 11.4449 17.5243C10.9456 17.6164 10.4513 17.6624 9.95191 17.6624C9.04902 17.6624 8.20666 17.5294 7.43492 17.2583C6.65814 16.9872 5.98728 16.5729 5.41731 16.0102C4.84733 15.4476 4.39841 14.7468 4.07559 13.9079C3.75277 13.0639 3.59136 12.0767 3.59136 10.9361C3.59136 9.9642 3.7326 9.07417 4.02011 8.2711C4.30762 7.46803 4.72627 6.77238 5.28112 6.18414C5.83596 5.59591 6.50177 5.14067 7.28865 4.82353C8.07047 4.50639 8.96327 4.34783 9.95695 4.34783C10.4916 4.34783 11.0011 4.40409 11.4903 4.51662C11.9796 4.62916 12.4437 4.78772 12.8875 4.99233C13.2759 5.18159 13.6593 5.2532 14.0376 5.21739C14.4159 5.18159 14.7236 4.99233 14.9657 4.65473C15.3137 4.22506 15.4499 3.74936 15.3642 3.22251C15.2784 2.69565 15.001 2.31714 14.5218 2.07161C13.8409 1.71867 13.1095 1.44757 12.3377 1.25831C11.561 1.06905 10.769 0.976982 9.95695 0.976982C8.51939 0.976982 7.19281 1.22251 5.97215 1.71867C4.75653 2.21483 3.69728 2.90537 2.80449 3.7954C1.91169 4.68542 1.22066 5.73402 0.731385 6.95141C0.242113 8.1688 0 9.49361 0 10.9361C0 12.5985 0.267333 14.0614 0.802002 15.3248C1.33667 16.5882 2.06806 17.6368 3.00121 18.4808C3.93435 19.3248 4.99361 19.9591 6.184 20.3887C7.3744 20.8184 8.63036 21.0332 9.96199 21.0332C10.4967 21.0332 11.0212 20.9923 11.5408 20.9054C12.0553 20.8184 12.5698 20.7008 13.0742 20.5422C13.5786 20.3836 14.0729 20.1841 14.5521 19.9386C15.0111 19.7136 15.2935 19.3555 15.3944 18.8593C15.4953 18.3632 15.3642 17.8824 14.996 17.4169C14.7387 17.0793 14.4209 16.8849 14.0426 16.8286L14.0325 16.8235Z" fill="var(--fill-0, #FAF0E6)"/>
<path id="Vector_2" d="M28.4989 6.46036C27.3639 5.7954 26.0979 5.46292 24.6957 5.46292C23.2934 5.46292 22.0274 5.7954 20.8924 6.46036C19.7575 7.12532 18.8546 8.04092 18.1838 9.20716C17.5129 10.3785 17.175 11.7289 17.175 13.2583C17.175 14.7877 17.5129 16.1432 18.1838 17.3095C18.8546 18.4808 19.7626 19.3913 20.8924 20.046C22.0274 20.7008 23.2934 21.0281 24.6957 21.0281C26.0979 21.0281 27.3639 20.7008 28.4989 20.046C29.6338 19.3913 30.5367 18.4808 31.2075 17.3095C31.8784 16.1432 32.2163 14.7877 32.2163 13.2583C32.2163 11.7289 31.8784 10.3734 31.2075 9.20716C30.5367 8.04092 29.6338 7.1202 28.4989 6.46036ZM28.3324 15.7187C27.9541 16.4194 27.4497 16.9668 26.8091 17.3606C26.1685 17.7545 25.4674 17.9489 24.6957 17.9489C23.9239 17.9489 23.2177 17.7545 22.5822 17.3606C21.9466 16.9668 21.4372 16.4194 21.0589 15.7187C20.6806 15.0179 20.494 14.1995 20.494 13.2634C20.494 12.3274 20.6806 11.4834 21.0589 10.7826C21.4372 10.0818 21.9416 9.53453 22.5822 9.14066C23.2228 8.7468 23.9239 8.55243 24.6957 8.55243C25.4674 8.55243 26.1736 8.7468 26.8091 9.14066C27.4447 9.53453 27.9541 10.0818 28.3324 10.7826C28.7107 11.4834 28.8973 12.312 28.8973 13.2634C28.8973 14.2148 28.7057 15.0179 28.3324 15.7187Z" fill="var(--fill-0, #FAF0E6)"/>
<path id="Vector_3" d="M43.0207 20.6803C43.6209 20.445 44.1405 20.1637 44.5843 19.8261C44.9122 19.5754 45.1896 19.3248 45.4166 19.0691C45.4216 19.5448 45.578 19.9386 45.8857 20.2609C46.1984 20.5882 46.5969 20.7519 47.0761 20.7519C47.5553 20.7519 47.9537 20.5882 48.2665 20.2609C48.5792 19.9335 48.7356 19.5294 48.7356 19.0384V1.70844C48.7356 1.20205 48.5792 0.792839 48.2665 0.475703C47.9537 0.158568 47.5553 4.41593e-08 47.0761 4.41593e-08C46.5969 4.41593e-08 46.1984 0.163683 45.8857 0.491049C45.573 0.818414 45.4166 1.22762 45.4166 1.71356V7.22251C45.2552 7.06905 45.0786 6.9156 44.8769 6.76215C44.3876 6.38875 43.8126 6.08184 43.1468 5.83632C42.481 5.59591 41.7546 5.47315 40.9627 5.47315C39.7269 5.47315 38.6021 5.80563 37.5882 6.47059C36.5744 7.13555 35.7673 8.05115 35.1671 9.21739C34.5668 10.3887 34.2692 11.7391 34.2692 13.2685C34.2692 14.798 34.5668 16.1228 35.1671 17.2941C35.7673 18.4655 36.5845 19.3811 37.6135 20.0409C38.6475 20.7059 39.7975 21.0384 41.0686 21.0384C41.7698 21.0384 42.4204 20.9207 43.0207 20.6854V20.6803ZM37.9564 15.6471C37.6135 14.9361 37.447 14.1432 37.447 13.2634C37.447 12.3836 37.6185 11.5601 37.9564 10.8491C38.2994 10.1381 38.7736 9.57545 39.3789 9.16624C39.9892 8.75703 40.6903 8.54731 41.4822 8.54731C42.2742 8.54731 43.0055 8.75192 43.6108 9.16624C44.2212 9.57545 44.6953 10.1381 45.0333 10.8491C45.3762 11.5601 45.5427 12.3632 45.5427 13.2634C45.5427 14.1637 45.3712 14.9361 45.0333 15.6471C44.6903 16.3581 44.2161 16.9207 43.6108 17.3299C43.0005 17.7391 42.2943 17.9489 41.4822 17.9489C40.6701 17.9489 39.9892 17.7442 39.3789 17.3299C38.7685 16.9207 38.2944 16.3581 37.9564 15.6471Z" fill="var(--fill-0, #FAF0E6)"/>
<path id="Vector_4" d="M61.8148 20.5678C62.6824 20.2609 63.3532 19.8977 63.8324 19.4885C64.3469 19.0793 64.6092 18.6189 64.6092 18.1125C64.6092 17.7391 64.473 17.4118 64.2107 17.1304C63.9434 16.8491 63.6054 16.711 63.2019 16.711C62.9043 16.711 62.5916 16.7928 62.2587 16.9616C62.0569 17.0742 61.8299 17.2123 61.5828 17.3657C61.3356 17.5243 61.0077 17.6624 60.5992 17.7749C60.1957 17.8875 59.6509 17.9437 58.9649 17.9437C58.2285 17.9437 57.5324 17.7596 56.8767 17.3964C56.2209 17.0332 55.6863 16.5013 55.2727 15.7954C55.0305 15.3862 54.8691 14.9207 54.7683 14.4092H63.8879C64.3318 14.4092 64.7202 14.2711 65.048 13.9898C65.3809 13.7084 65.5524 13.3453 65.5726 12.8951C65.5726 11.8875 65.3809 10.9309 65.0077 10.0358C64.6294 9.14067 64.1199 8.34783 63.4743 7.66752C62.8286 6.98721 62.0872 6.44501 61.2499 6.05627C60.4125 5.6624 59.5198 5.46803 58.5816 5.46803C57.3659 5.46803 56.2109 5.78517 55.1264 6.41944C54.0369 7.05371 53.1592 7.96931 52.4833 9.15601C51.8124 10.3427 51.4745 11.7801 51.4745 13.4629C51.4745 14.9054 51.7822 16.1944 52.4026 17.335C53.018 18.4757 53.9057 19.3811 55.0558 20.0409C56.2058 20.7059 57.5677 21.0384 59.1364 21.0384C60.0595 21.0384 60.9523 20.8849 61.8198 20.578L61.8148 20.5678ZM55.7872 9.52941C56.1352 9.17647 56.5539 8.92072 57.033 8.77238C57.5122 8.62404 58.0267 8.54731 58.5816 8.54731C59.1364 8.54731 59.6912 8.67519 60.2007 8.92583C60.7051 9.17647 61.1338 9.51918 61.4718 9.94885C61.8148 10.3785 62.0014 10.8645 62.0367 11.4067V11.601H54.7935C54.8389 11.3708 54.8893 11.1509 54.9549 10.9565C55.1567 10.3581 55.4341 9.88235 55.7872 9.5243V9.52941Z" fill="var(--fill-0, #FAF0E6)"/>
<path id="Vector_5" d="M76.5283 3.10997L79.2924 4.59847C79.4034 4.65473 79.5144 4.69565 79.6253 4.72634C79.7363 4.75192 79.8372 4.76726 79.928 4.76726C80.276 4.76726 80.5585 4.67519 80.7703 4.48593C80.9822 4.29668 81.0881 4.05627 81.0881 3.75448C81.0881 3.49361 80.957 3.23785 80.6997 2.99744L78.3189 0.86445C78.1323 0.695652 77.9255 0.55243 77.6985 0.429668C77.4665 0.306906 77.2244 0.245524 76.9671 0.245524C76.6544 0.245524 76.3316 0.368287 75.9987 0.608696C75.6658 0.85422 75.4993 1.1867 75.4993 1.61637C75.4993 1.8977 75.585 2.1688 75.7616 2.42967C75.9381 2.69054 76.1903 2.9156 76.5232 3.10486L76.5283 3.10997Z" fill="var(--fill-0, #FAF0E6)"/>
<path id="Vector_6" d="M86.46 5.94373C86.1473 5.6266 85.7488 5.46803 85.2696 5.46803C84.7904 5.46803 84.3919 5.63171 84.0792 5.95908C83.7665 6.28645 83.6101 6.69054 83.6101 7.17647V7.21739C83.4487 7.06394 83.2722 6.91049 83.0704 6.75703C82.5811 6.38363 82.0061 6.07673 81.3403 5.8312C80.6745 5.59079 79.9481 5.46803 79.1562 5.46803C77.9204 5.46803 76.7956 5.80051 75.7818 6.46547C74.7679 7.13044 73.9609 8.04604 73.3606 9.21228C72.7604 10.3836 72.4628 11.734 72.4628 13.2634C72.4628 14.7928 72.7604 16.1176 73.3606 17.289C73.9609 18.4604 74.778 19.376 75.807 20.0358C76.841 20.7008 77.9911 21.0332 79.2622 21.0332C79.9633 21.0332 80.614 20.9156 81.2142 20.6803C81.8144 20.445 82.334 20.1637 82.7779 19.8261C83.1057 19.5754 83.3831 19.3248 83.6101 19.0691C83.6152 19.5448 83.7715 19.9386 84.0792 20.2609C84.3919 20.5882 84.7904 20.7519 85.2696 20.7519C85.7488 20.7519 86.1473 20.5882 86.46 20.2609C86.7727 19.9335 86.9291 19.5294 86.9291 19.0384V7.17136C86.9291 6.66496 86.7727 6.25575 86.46 5.93862V5.94373ZM83.2369 15.6471C82.8939 16.3581 82.4197 16.9207 81.8144 17.3299C81.2041 17.7391 80.4979 17.9489 79.6859 17.9489C78.8738 17.9489 78.1928 17.7442 77.5825 17.3299C76.9722 16.9207 76.498 16.3581 76.1601 15.6471C75.8171 14.9361 75.6506 14.1432 75.6506 13.2634C75.6506 12.3836 75.8221 11.5601 76.1601 10.8491C76.5031 10.1381 76.9772 9.57545 77.5825 9.16624C78.1928 8.75703 78.8939 8.54731 79.6859 8.54731C80.4778 8.54731 81.2092 8.75192 81.8144 9.16624C82.4248 9.57545 82.8989 10.1381 83.2369 10.8491C83.5799 11.5601 83.7463 12.3632 83.7463 13.2634C83.7463 14.1637 83.5748 14.9361 83.2369 15.6471Z" fill="var(--fill-0, #FAF0E6)"/>
<path id="Vector_7" d="M14.0325 39.4425C13.6542 39.3862 13.2709 39.4527 12.8825 39.6368C12.4235 39.8824 11.9443 40.046 11.4449 40.1432C10.9456 40.2353 10.4513 40.2813 9.95191 40.2813C9.04902 40.2813 8.20666 40.1483 7.43492 39.8772C6.65814 39.6061 5.98728 39.1918 5.41731 38.6292C4.84733 38.0665 4.39841 37.3657 4.07559 36.5269C3.75277 35.6829 3.59136 34.6957 3.59136 33.555C3.59136 32.5831 3.7326 31.6931 4.02011 30.89C4.30762 30.087 4.72627 29.3913 5.28112 28.8031C5.83596 28.2148 6.50177 27.7596 7.28865 27.4425C8.07047 27.1253 8.96327 26.9668 9.95695 26.9668C10.4916 26.9668 11.0011 27.023 11.4903 27.1356C11.9796 27.2481 12.4437 27.4067 12.8875 27.6113C13.2759 27.8005 13.6593 27.8721 14.0376 27.8363C14.4159 27.8005 14.7236 27.6113 14.9657 27.2737C15.3137 26.844 15.4499 26.3683 15.3642 25.8414C15.2784 25.3146 15.001 24.9361 14.5218 24.6905C13.8409 24.3376 13.1095 24.0665 12.3377 23.8772C11.561 23.688 10.769 23.5959 9.95695 23.5959C8.51939 23.5959 7.19281 23.8414 5.97215 24.3376C4.75653 24.8338 3.69728 25.5243 2.80449 26.4143C1.91169 27.3043 1.22066 28.3529 0.731385 29.5703C0.242113 30.7877 0 32.1125 0 33.555C0 35.2174 0.267333 36.6803 0.802002 37.9437C1.33667 39.2072 2.06806 40.2558 3.00121 41.0997C3.93435 41.9386 4.99361 42.578 6.184 43.0077C7.3744 43.4373 8.63036 43.6522 9.96199 43.6522C10.4967 43.6522 11.0212 43.6113 11.5408 43.5243C12.0553 43.4373 12.5698 43.3197 13.0742 43.1611C13.5786 43.0026 14.0729 42.8031 14.5521 42.5575C15.0111 42.3325 15.2935 41.9744 15.3944 41.4783C15.4953 40.9821 15.3642 40.5013 14.996 40.0358C14.7387 39.6982 14.4209 39.5038 14.0426 39.4476L14.0325 39.4425Z" fill="var(--fill-0, #FAF0E6)"/>
<path id="Vector_8" d="M28.3475 28.3632C27.8684 28.3632 27.4699 28.5269 27.1572 28.8542C26.8444 29.1816 26.6881 29.5908 26.6881 30.0767V37.202C26.6881 38.3427 26.4409 39.1867 25.9415 39.7391C25.4422 40.2916 24.6856 40.5678 23.6717 40.5678C22.6579 40.5678 21.9315 40.2916 21.4322 39.7391C20.9328 39.1867 20.6856 38.3427 20.6856 37.202V30.0767C20.6856 29.5908 20.5293 29.1816 20.2165 28.8542C19.9038 28.5269 19.5053 28.3632 19.0261 28.3632C18.547 28.3632 18.1485 28.5269 17.8357 28.8542C17.523 29.1816 17.3667 29.5908 17.3667 30.0767V37.202C17.3667 39.1867 17.9064 40.757 18.9858 41.913C20.0652 43.0742 21.6289 43.6522 23.6717 43.6522C25.7146 43.6522 27.2832 43.0742 28.3728 41.913C29.4623 40.7519 30.007 39.1816 30.007 37.202V30.0767C30.007 29.5908 29.8507 29.1816 29.5379 28.8542C29.2252 28.5269 28.8267 28.3632 28.3475 28.3632Z" fill="var(--fill-0, #FAF0E6)"/>
<path id="Vector_9" d="M34.4054 28.3632C33.9263 28.3632 33.5278 28.5269 33.215 28.8542C32.9023 29.1816 32.746 29.5908 32.746 30.0767V41.6624C32.746 42.1483 32.9023 42.5575 33.215 42.8798C33.5278 43.2072 33.9263 43.3708 34.4054 43.3708C34.8846 43.3708 35.2831 43.2072 35.5958 42.8798C35.9086 42.5524 36.0649 42.1483 36.0649 41.6624V30.0767C36.0649 29.5908 35.9086 29.1816 35.5958 28.8542C35.2831 28.5269 34.8846 28.3632 34.4054 28.3632Z" fill="var(--fill-0, #FAF0E6)"/>
<path id="Vector_10" d="M34.4054 23.202C33.8153 23.202 33.3765 23.2992 33.0889 23.4987C32.8014 23.6931 32.6602 24.0665 32.6602 24.6087V25.1407C32.6602 25.6624 32.7863 26.0307 33.0486 26.2353C33.3058 26.4399 33.7497 26.5422 34.3752 26.5422C35.0006 26.5422 35.4546 26.445 35.732 26.2455C36.0095 26.0512 36.1456 25.6778 36.1456 25.1356V24.6036C36.1456 24.0818 36.0145 23.7136 35.7573 23.509C35.5 23.3043 35.046 23.202 34.4004 23.202H34.4054Z" fill="var(--fill-0, #FAF0E6)"/>
<path id="Vector_11" d="M47.7621 35.821C47.2829 35.4834 46.7583 35.2123 46.1833 35.0077C45.6083 34.8031 45.0484 34.624 44.4986 34.4757C43.9639 34.3274 43.4595 34.1739 42.9904 34.0102C42.5213 33.8517 42.1481 33.6471 41.8706 33.3913C41.5932 33.1407 41.457 32.798 41.457 32.3683C41.457 31.9028 41.5781 31.5601 41.8151 31.3453C42.0573 31.1304 42.3347 30.9923 42.6575 30.9258C42.9803 30.8593 43.2779 30.8286 43.5553 30.8286C44.2363 30.8286 44.8416 30.9514 45.3662 31.1918C45.8907 31.4373 46.3094 31.7647 46.6272 32.1739C46.8642 32.399 47.1719 32.5269 47.5401 32.5524C47.9083 32.5831 48.2312 32.4808 48.5086 32.2558C48.897 31.9386 49.0735 31.5806 49.0332 31.1918C48.9928 30.8031 48.8768 30.4604 48.675 30.1841C48.2867 29.6777 47.8075 29.2737 47.2375 28.9616C46.6675 28.6547 46.0673 28.4297 45.4418 28.2864C44.8164 28.1483 44.2161 28.0767 43.6461 28.0767C42.7433 28.0767 41.8807 28.2558 41.0585 28.6087C40.2364 28.9668 39.5705 29.468 39.051 30.1228C38.5365 30.7775 38.2742 31.5703 38.2742 32.5064C38.2742 33.3299 38.4306 34.0102 38.7433 34.5524C39.0561 35.0946 39.4646 35.5294 39.9589 35.8568C40.4583 36.1841 41.0031 36.4501 41.6033 36.6547C42.2035 36.8593 42.7886 37.0486 43.3586 37.2174C43.9135 37.3657 44.4128 37.5243 44.8668 37.6931C45.3208 37.8619 45.6839 38.0665 45.9614 38.312C46.2388 38.5575 46.375 38.8849 46.375 39.2941C46.375 39.7801 46.2489 40.1381 46.0017 40.3734C45.7545 40.6087 45.462 40.757 45.1291 40.8235C44.7962 40.89 44.4935 40.9309 44.2161 40.9514C43.3334 40.9514 42.5919 40.8031 42.0018 40.5013C41.4116 40.2046 40.8467 39.7801 40.312 39.2379C39.9993 38.9207 39.6765 38.7468 39.3436 38.7212C39.0107 38.6957 38.6979 38.7724 38.4054 38.9616C37.9464 39.2583 37.7042 39.6164 37.6841 40.0256C37.6639 40.4348 37.7496 40.7724 37.9312 41.0332C38.6525 42.0051 39.5554 42.6854 40.6399 43.0691C41.7294 43.4527 42.8139 43.6419 43.9034 43.6419C44.771 43.6419 45.6184 43.468 46.4456 43.1253C47.2778 42.7775 47.9689 42.2711 48.5187 41.5959C49.0735 40.9207 49.351 40.1074 49.351 39.156C49.351 38.3325 49.2047 37.6573 48.9071 37.1202C48.6095 36.5882 48.2261 36.1535 47.7469 35.8159L47.7621 35.821Z" fill="var(--fill-0, #FAF0E6)"/>
<path id="Vector_12" d="M52.9373 23.202C52.3471 23.202 51.9083 23.2992 51.6258 23.4987C51.3383 23.6931 51.1971 24.0665 51.1971 24.6087V25.1407C51.1971 25.6624 51.3282 26.0307 51.5855 26.2353C51.8427 26.4399 52.2866 26.5422 52.912 26.5422C53.5375 26.5422 53.9915 26.445 54.2689 26.2455C54.5463 26.0512 54.6825 25.6778 54.6825 25.1356V24.6036C54.6825 24.0818 54.5514 23.7136 54.2941 23.509C54.0369 23.3043 53.5829 23.202 52.9373 23.202Z" fill="var(--fill-0, #FAF0E6)"/>
<path id="Vector_13" d="M52.9373 28.3632C52.4581 28.3632 52.0596 28.5269 51.7469 28.8542C51.4341 29.1816 51.2778 29.5908 51.2778 30.0767V41.6624C51.2778 42.1483 51.4341 42.5575 51.7469 42.8798C52.0596 43.2072 52.4581 43.3708 52.9373 43.3708C53.4165 43.3708 53.8149 43.2072 54.1277 42.8798C54.4404 42.5524 54.5968 42.1483 54.5968 41.6624V30.0767C54.5968 29.5908 54.4404 29.1816 54.1277 28.8542C53.8149 28.5269 53.4165 28.3632 52.9373 28.3632Z" fill="var(--fill-0, #FAF0E6)"/>
<path id="Vector_14" d="M68.3569 28.9514C67.6457 28.3734 66.6117 28.0818 65.2447 28.0818C64.6193 28.0818 64.0392 28.179 63.5045 28.3785C62.9699 28.5729 62.4907 28.8338 62.067 29.1509C61.6433 29.468 61.2751 29.8107 60.9623 30.1739C60.8463 30.3069 60.7555 30.4348 60.6597 30.5627V30.0767C60.6597 29.5908 60.5033 29.1816 60.1906 28.8542C59.8779 28.5269 59.4794 28.3632 59.0002 28.3632C58.521 28.3632 58.1225 28.5269 57.8098 28.8542C57.4971 29.1816 57.3407 29.5908 57.3407 30.0767V41.6624C57.3407 42.1483 57.4971 42.5575 57.8098 42.8798C58.1225 43.2072 58.521 43.3708 59.0002 43.3708C59.4794 43.3708 59.8779 43.2072 60.1906 42.8798C60.5033 42.5524 60.6597 42.1483 60.6597 41.6624V34.4808C60.6597 33.8619 60.7908 33.3095 61.0582 32.8133C61.3255 32.3171 61.7139 31.9182 62.2183 31.6215C62.7227 31.3248 63.3482 31.1714 64.0846 31.1714C64.821 31.1714 65.4213 31.3197 65.8299 31.6215C66.2334 31.9233 66.5158 32.3171 66.6722 32.8133C66.8286 33.3095 66.9093 33.867 66.9093 34.4808V41.6624C66.9093 42.1483 67.0656 42.5575 67.3784 42.8798C67.6911 43.2072 68.0896 43.3708 68.5688 43.3708C69.048 43.3708 69.4464 43.2072 69.7592 42.8798C70.0719 42.5524 70.2283 42.1483 70.2283 41.6624V34.4808C70.2283 33.3043 70.0921 32.2302 69.8298 31.2685C69.5624 30.3069 69.0732 29.5345 68.362 28.9565L68.3569 28.9514Z" fill="var(--fill-0, #FAF0E6)"/>
<path id="Vector_15" d="M84.4676 30.2813C83.822 29.601 83.0805 29.0588 82.2432 28.6701C81.4059 28.2762 80.5131 28.0818 79.5749 28.0818C78.3593 28.0818 77.2042 28.399 76.1197 29.0332C75.0302 29.6675 74.1525 30.5831 73.4766 31.7698C72.8058 32.9565 72.4678 34.3939 72.4678 36.0767C72.4678 37.5192 72.7755 38.8082 73.3959 39.9489C74.0113 41.0895 74.8991 41.9949 76.0491 42.6547C77.1991 43.3197 78.561 43.6522 80.1297 43.6522C81.0528 43.6522 81.9456 43.4987 82.8131 43.1867C83.6807 42.8798 84.3516 42.5166 84.8308 42.1074C85.3453 41.6982 85.6076 41.2379 85.6076 40.7315C85.6076 40.3581 85.4714 40.0307 85.2091 39.7494C84.9417 39.468 84.6038 39.3299 84.2003 39.3299C83.9027 39.3299 83.5899 39.4169 83.257 39.5806C83.0553 39.6931 82.8283 39.8312 82.5811 39.9898C82.334 40.1483 82.0061 40.2864 81.5975 40.3939C81.194 40.5064 80.6493 40.5627 79.9633 40.5627C79.2268 40.5627 78.5308 40.3785 77.875 40.0153C77.2193 39.6522 76.6846 39.1202 76.271 38.4143C76.0289 38.0051 75.8675 37.5396 75.7666 37.0281H84.8863C85.3301 37.0281 85.7185 36.89 86.0464 36.6087C86.3793 36.3274 86.5508 35.9642 86.571 35.5141C86.571 34.5064 86.3793 33.5499 86.006 32.6547C85.6277 31.7596 85.1183 30.9668 84.4726 30.2864L84.4676 30.2813ZM76.7754 32.1483C77.1235 31.7954 77.5421 31.5396 78.0213 31.3913C78.5005 31.243 79.015 31.1662 79.5698 31.1662C80.1247 31.1662 80.6795 31.2941 81.189 31.5448C81.6934 31.7954 82.1221 32.1381 82.4601 32.5678C82.8031 32.9974 82.9897 33.4834 83.025 34.0256V34.22H75.7818C75.8272 33.9898 75.8776 33.7698 75.9432 33.5755C76.1449 32.977 76.4224 32.5013 76.7754 32.1432V32.1483Z" fill="var(--fill-0, #FAF0E6)"/>
</g>
</svg>
