<svg preserveAspectRatio="none" width="100%" height="100%" overflow="visible" style="display: block;" viewBox="0 0 50.1398 48.0019" fill="none" xmlns="http://www.w3.org/2000/svg">
<g id="Group">
<path id="Vector" d="M50.1287 20.9379C50.0884 21.6745 49.9673 22.4059 49.7555 23.1169C49.3116 24.5799 48.4642 25.9251 47.2839 26.8765C45.6647 28.1911 43.4151 28.6412 41.3874 28.3804C39.4454 28.1348 37.7002 26.6668 36.5098 25.1579C36.3434 24.9481 36.0004 24.9686 35.8087 25.1169C35.6019 25.2806 35.5363 25.5773 35.6725 25.8126C36.4341 27.1221 37.5438 28.1655 38.8704 28.8663C39.854 29.3829 40.9637 29.6898 42.0734 29.7972C42.0633 30.0377 42.0633 30.2832 42.0532 30.5287C42.028 31.1527 42.033 31.7768 42.028 32.4008C42.0179 33.6643 42.0078 34.9277 42.0078 36.186C42.0078 38.6975 42.0078 41.209 41.9977 43.7205V47.3471C41.9372 47.3625 41.8767 47.3778 41.8161 47.3932C41.6245 47.4341 41.4328 47.475 41.2411 47.5159C41.0646 47.5466 40.8931 47.5773 40.7165 47.608C40.6409 47.6182 40.5602 47.6285 40.4845 47.6387C40.4845 47.6387 40.4778 47.6404 40.4643 47.6438C40.4089 47.6489 40.3534 47.6591 40.2928 47.6694C39.0268 47.8791 37.7305 47.8791 36.4594 47.741C35.269 47.608 34.0029 47.5006 32.873 47.0863C31.9298 46.7384 31.1127 46.0223 30.5679 45.1783C29.9778 44.2576 29.6549 43.0863 29.8012 41.9865C29.8416 41.654 30.0383 40.4622 30.9866 39.5159C31.1984 39.3011 32.1618 38.5952 33.4733 38.2832C34.3106 38.0888 35.1731 38.0479 36.0155 37.8893C36.1466 37.8637 36.3131 37.787 36.2879 37.654C36.2677 37.5466 36.1365 37.5108 36.0306 37.5006C35.7532 37.475 35.4808 37.4597 35.2034 37.4597C35.0672 37.4545 34.931 37.4597 34.7948 37.4597H34.7747C34.5174 37.4136 34.2602 37.3829 34.0029 37.3573C33.5036 37.296 33.0092 37.2141 32.52 37.0862C31.7886 36.8919 31.0824 36.6003 30.4721 36.14C29.887 35.6949 29.4481 35.1169 29.1505 34.4417C29.0093 34.1144 28.8933 33.7819 28.8075 33.4443C28.7268 32.9686 28.6512 32.4417 28.5856 31.8484C28.5806 31.8382 28.5806 31.8279 28.5806 31.8126C28.5654 31.6233 28.5604 31.429 28.5553 31.2346C28.5503 30.9226 28.5907 30.585 28.5049 30.2832C28.4847 30.1758 28.4494 30.0786 28.3889 29.9712C28.2981 29.8279 28.0862 29.8228 27.9955 29.9712C27.7937 30.319 27.8643 30.7487 27.8542 31.1323C27.8441 31.521 27.824 31.9047 27.7836 32.2934C27.713 33.0095 27.5465 33.6796 27.259 34.3394C26.9665 35.0146 26.5226 35.5926 25.9375 36.0325C25.3272 36.4929 24.621 36.7896 23.8896 36.9839C23.4003 37.1118 22.906 37.1937 22.4067 37.2499C22.1494 37.2806 21.8922 37.3113 21.64 37.3522C21.3978 37.3932 21.1507 37.4085 20.9237 37.5057C20.8632 37.5313 20.843 37.5875 20.843 37.6489C20.8178 37.7819 20.9842 37.8586 21.1154 37.8842C21.9577 38.0428 22.8253 38.0837 23.6576 38.2781C24.9186 38.5799 25.8618 39.2295 26.1443 39.5108C27.945 41.2806 27.8542 44.3855 25.8316 45.9302C24.8631 46.6719 23.7433 47.1323 22.5781 47.4545C21.9981 47.6182 20.732 47.9149 19.0372 48.0019H16.9036C16.1016 47.966 15.2996 47.8637 14.543 47.5875C14.6792 47.0607 14.7498 46.4929 14.7952 45.92C14.8456 45.3215 14.8608 44.718 14.891 44.1553C14.9516 42.9737 15.002 41.7972 15.0423 40.6208C15.118 38.1348 15.1382 35.6438 15.1029 33.1579C15.0877 31.8995 15.0827 30.6361 14.9415 29.3829C15.9856 29.0095 16.9994 28.4673 17.8014 27.6898C18.0133 27.4852 18.1394 27.2909 18.3412 27.0249C18.5026 26.8203 18.6387 26.5901 18.7749 26.3599C18.9212 26.099 18.5883 25.8637 18.3765 26.0479C18.1848 26.2167 17.983 26.3804 17.7762 26.5236C17.6753 26.5952 17.5745 26.6617 17.4736 26.7282L17.4534 26.7384C17.4534 26.7384 17.4736 26.7333 17.4786 26.7333C17.4736 26.7384 17.4534 26.7487 17.4181 26.7589C17.408 26.764 17.2819 26.851 17.2668 26.8612C17.2466 26.8714 17.2264 26.8868 17.2214 26.8919C17.1911 26.9123 17.1558 26.9379 17.1205 26.9584C16.6867 27.255 16.2327 27.5364 15.7636 27.7717C15.6527 27.8279 15.5367 27.8791 15.4206 27.9354L15.3652 27.9558C15.3652 27.9558 15.3349 27.9712 15.3299 27.9763C15.2592 28.0018 15.1886 28.0325 15.118 28.0581C14.8658 28.1553 14.6086 28.2423 14.3513 28.3139C14.0991 28.3855 13.8469 28.4469 13.5897 28.498C13.4585 28.5236 13.3223 28.5492 13.1912 28.5696C13.166 28.5696 13.1407 28.5696 13.1155 28.5799C13.0449 28.585 12.9743 28.5952 12.9037 28.6054C12.364 28.6617 11.8242 28.677 11.2845 28.6464C11.1584 28.6412 11.0323 28.631 10.9062 28.6157C10.8457 28.6105 10.7902 28.6054 10.7297 28.6003C10.6944 28.5952 10.6641 28.5901 10.6238 28.585H10.6036C10.3362 28.5389 10.0639 28.4878 9.79653 28.4264C9.24673 28.2985 8.70702 28.1195 8.17739 27.9047C8.15217 27.8944 8.132 27.8842 8.10678 27.874C8.09669 27.8689 8.0866 27.8637 8.07651 27.8637C8.07147 27.8637 8.06643 27.8586 8.05634 27.8586C8.01094 27.8382 7.96555 27.8126 7.92519 27.7972C7.79909 27.7359 7.66795 27.6745 7.54185 27.6131C7.28964 27.4852 7.03744 27.3471 6.79533 27.1988C6.54817 27.0556 6.30605 26.897 6.07403 26.7333C5.96306 26.6566 5.85209 26.5799 5.74112 26.498C5.7159 26.4776 5.68564 26.4571 5.65033 26.4315C5.63015 26.4111 5.52423 26.3343 5.48387 26.3036C5.47883 26.3036 5.4637 26.2883 5.45361 26.2781C5.01478 25.9456 4.60117 25.562 4.21278 25.1681C3.82438 24.7742 3.4259 24.3292 3.07282 23.8689C3.07282 23.8637 3.05769 23.8484 3.0476 23.8382C3.04256 23.8331 3.04256 23.8279 3.03751 23.8228C2.99212 23.7666 2.95176 23.7052 2.90637 23.6489C2.82062 23.5261 2.73487 23.4085 2.65416 23.2909C2.48771 23.0453 2.33135 22.7998 2.18002 22.5492C1.87738 22.0479 1.605 21.5313 1.35784 20.9942C1.30236 20.8714 1.24688 20.7435 1.19139 20.6208C1.1813 20.6003 1.17626 20.585 1.17121 20.5645C1.13591 20.4827 1.1006 20.3957 1.06529 20.3088C0.964409 20.0479 0.868572 19.7768 0.777779 19.5108C0.596194 18.9481 0.444872 18.3855 0.318771 17.8075C0.263286 17.5313 0.212846 17.2499 0.16745 16.9686C0.152317 16.8919 0.142229 16.8203 0.132141 16.7487C0.132141 16.7384 0.127097 16.7282 0.127097 16.7128C0.127097 16.7128 0.127097 16.6924 0.122053 16.6719C0.122053 16.6668 0.122053 16.6617 0.117009 16.6412C0.101877 16.5031 0.0867449 16.3701 0.0716127 16.2371C-0.0393563 15.0709 -0.0191801 13.9098 0.117009 12.7435C0.117009 12.7231 0.122053 12.6975 0.127097 12.6719C0.137185 12.6054 0.142229 12.544 0.157362 12.4776C0.177538 12.3241 0.202758 12.1706 0.233022 12.0223C0.283463 11.7461 0.343991 11.475 0.414608 11.209C0.540709 10.6822 0.702119 10.1604 0.888748 9.64891C0.934145 9.51591 0.984585 9.38804 1.03503 9.26016C1.0552 9.20389 1.08042 9.14763 1.1006 9.09136C1.10564 9.07602 1.12582 9.0351 1.13086 9.02487C1.13591 9.01464 1.13591 9.00952 1.13591 9.00952C1.24688 8.75377 1.36289 8.50313 1.48395 8.2576C1.72102 7.76655 1.98835 7.29085 2.27586 6.83049C2.42214 6.5952 2.57346 6.37013 2.73487 6.13995C2.81053 6.03765 2.88619 5.93024 2.96185 5.82793C2.99716 5.77678 3.03751 5.73075 3.07282 5.6796C3.093 5.64891 3.11822 5.61822 3.13839 5.59264C3.47634 5.16297 3.82943 4.75377 4.20773 4.36502C4.59108 3.97116 4.9946 3.59264 5.41326 3.2397C5.51414 3.15786 5.61502 3.07602 5.7159 2.99929C5.7159 2.98906 5.73103 2.98394 5.74112 2.97371C5.81174 2.92256 5.87731 2.87141 5.94793 2.82026C6.15978 2.66169 6.38172 2.50824 6.59861 2.3599C7.06771 2.053 7.55698 1.76655 8.05634 1.51591C8.31359 1.38292 8.58092 1.2397 8.8533 1.1374C8.88356 1.12205 8.92896 1.10671 8.94913 1.10159C9.01471 1.0709 9.08532 1.04533 9.15594 1.01463C9.29717 0.963484 9.43841 0.912333 9.57964 0.861182C10.1446 0.656579 10.7196 0.492896 11.3047 0.359903C11.5872 0.293407 11.8747 0.237141 12.1622 0.191105C12.2883 0.16553 12.4194 0.160415 12.5455 0.129724C12.5405 0.129724 12.5355 0.129724 12.5355 0.134839C12.5758 0.129724 12.6262 0.119494 12.6464 0.114379C12.7322 0.104149 12.8179 0.0939187 12.8986 0.0888036C14.084 -0.0390736 15.2794 -0.0288434 16.4597 0.119494C16.4849 0.119494 16.5051 0.124609 16.5303 0.124609C16.5959 0.134839 16.6564 0.14507 16.717 0.1553C16.8784 0.180875 17.0347 0.206451 17.1911 0.237141C17.4837 0.293407 17.7762 0.354788 18.0688 0.431515C18.6387 0.574737 19.2037 0.753765 19.7535 0.963484C19.8796 1.01463 20.0057 1.06579 20.1368 1.11694C20.157 1.12717 20.1772 1.1374 20.1974 1.14763L20.4243 1.24993C20.6866 1.36758 20.9439 1.50057 21.1961 1.63356C21.7156 1.92001 22.215 2.23714 22.6891 2.59008C22.7446 2.631 22.8001 2.67704 22.8556 2.71796C22.8707 2.72819 22.8808 2.73842 22.8909 2.74865C23.017 2.84584 23.133 2.94814 23.2541 3.05044C23.476 3.24481 23.6878 3.44942 23.8946 3.66425C24.0914 3.86886 24.283 4.08369 24.4596 4.30875C24.4848 4.33944 24.51 4.37013 24.5302 4.39571C24.5403 4.41105 24.5605 4.43663 24.5756 4.45198C24.5958 4.48267 24.6159 4.50824 24.621 4.51847C24.6563 4.56451 24.6866 4.61054 24.7168 4.65658C25.1355 5.18343 25.4835 5.73586 25.766 6.31387C26.0888 6.96348 26.3007 7.60799 26.4671 8.31898C26.5882 8.83049 26.4671 9.90978 27.0472 10.186C27.37 10.3394 27.5718 9.97116 27.597 9.70006C27.6525 9.07602 27.5818 8.44686 27.5314 7.83305C27.5011 7.48522 27.4507 7.13228 27.3851 6.78957C27.3246 6.48267 27.2035 6.19111 27.1279 5.88932C27.0926 5.75632 27.0472 5.61822 27.0068 5.48522C26.9715 5.38804 26.9413 5.29597 26.9009 5.20389C26.8959 5.20389 26.8959 5.18855 26.8959 5.18343C26.8908 5.17832 26.8908 5.1732 26.8908 5.16809C26.8757 5.12205 26.8555 5.08113 26.8404 5.0351C26.6991 4.69238 26.5478 4.37013 26.3461 4.05811C26.2805 3.95581 26.2048 3.85351 26.1342 3.75121C26.1846 3.74098 26.2401 3.73586 26.2906 3.72563C26.3057 3.72563 26.3461 3.7154 26.3662 3.7154C26.4015 3.71029 26.4318 3.70517 26.4671 3.70006C26.6487 3.6796 26.8252 3.65402 27.0068 3.62333C27.0522 3.61822 27.0976 3.6131 27.143 3.60287C27.1481 3.60287 27.1581 3.60287 27.1682 3.59776C27.2439 3.58753 27.3196 3.58241 27.3902 3.57218C27.7029 3.54149 28.0156 3.52103 28.3284 3.51591C28.6512 3.5108 28.979 3.52103 29.2968 3.5466C29.4481 3.56195 29.5944 3.57218 29.7407 3.58753C29.8164 3.59776 29.887 3.60287 29.9626 3.6131C29.9929 3.61822 30.0131 3.61822 30.0181 3.61822C30.0484 3.62333 30.0837 3.63356 30.114 3.63868C30.7344 3.73586 31.3447 3.88932 31.9349 4.10415C32.0761 4.1553 32.2123 4.20645 32.3485 4.26272C32.3636 4.26783 32.3787 4.27806 32.3939 4.28318C32.409 4.28829 32.4493 4.30875 32.4645 4.31387C32.5401 4.34967 32.6158 4.38548 32.6915 4.42128C32.9739 4.55428 33.2463 4.70261 33.5136 4.8663C33.7709 5.01975 34.018 5.18343 34.2551 5.36246C34.3106 5.40338 34.3661 5.4443 34.4216 5.48522C34.4417 5.50568 34.4619 5.51591 34.4821 5.53637C34.6032 5.63356 34.7192 5.73075 34.8301 5.83305C35.274 6.2218 35.6775 6.65146 36.0458 7.11694C36.076 7.15274 36.1164 7.18855 36.1416 7.23458C36.1416 7.2397 36.1517 7.24993 36.1567 7.26016C36.1769 7.28574 36.1971 7.31131 36.2173 7.342C36.308 7.46476 36.3988 7.59264 36.4846 7.72052C36.641 7.96093 36.7973 8.21157 36.9335 8.46732C37.0949 8.75377 37.2361 9.04533 37.3673 9.34712C37.3774 9.37269 37.3925 9.39827 37.4026 9.42896C37.4127 9.4443 37.4127 9.45453 37.4177 9.46476C37.443 9.53637 37.4732 9.60799 37.4984 9.6796C37.559 9.83305 37.6145 9.9865 37.6599 10.14C37.7658 10.4571 37.8515 10.7845 37.9221 11.1118C37.9574 11.2704 37.9877 11.429 38.0129 11.5926C38.018 11.6182 38.023 11.6438 38.023 11.6745C37.5842 11.8944 37.1554 12.1451 36.7469 12.4162C35.1883 13.4648 33.8768 14.8254 33.1454 16.5901C33.1051 16.6924 33.0647 16.8049 33.1051 16.9021C33.1555 17.0402 33.3371 17.0862 33.4733 17.0402C33.6095 16.9891 33.7154 16.8765 33.8112 16.7691C35.6372 14.7691 37.9121 13.1118 40.5198 12.4417C42.0129 12.0581 43.6169 12.0121 45.0746 12.5134C48.4793 13.6847 50.3002 17.4494 50.1287 20.9328V20.9379Z" fill="var(--fill-0, #FAF0E6)"/>
<path id="Vector_2" d="M37.1807 32.6156C34.7293 32.8816 34.5124 33.1015 34.2501 35.5874C33.9878 33.1015 33.7709 32.8816 31.3195 32.6156C33.7709 32.3496 33.9878 32.1296 34.2501 29.6437C34.5124 32.1296 34.7293 32.3496 37.1807 32.6156Z" fill="var(--fill-0, #396039)"/>
<g id="Group_2">
<path id="Vector_3" d="M48.1261 25.2908C48.1261 25.2908 48.111 25.3163 48.1009 25.3367C48.0959 25.3469 48.0909 25.352 48.0858 25.3622C48.0858 25.3622 48.0808 25.3725 48.0758 25.3725C48.0758 25.3725 48.0707 25.3776 48.0657 25.3827C48.0657 25.3827 48.0607 25.3878 48.0556 25.3929C48.1009 25.3214 48.1261 25.2908 48.1312 25.2857L48.1261 25.2908Z" fill="var(--fill-0, #FAF0E6)"/>
<path id="Vector_4" d="M41.7454 28.1345H41.7353C41.7101 28.1345 41.69 28.1244 41.6648 28.1244C41.6295 28.1143 41.6245 28.1042 41.7504 28.1345H41.7454Z" fill="var(--fill-0, #FAF0E6)"/>
<path id="Vector_5" d="M49.4831 18.9429C49.468 18.8969 49.4579 18.8918 49.4982 19.0348C49.4982 19.0348 49.4982 19.0348 49.4982 19.0297C49.4931 18.9991 49.4831 18.9735 49.4831 18.9429Z" fill="var(--fill-0, #FAF0E6)"/>
<path id="Vector_6" d="M45.2157 12.7073C45.1301 12.6871 45.1049 12.677 45.1149 12.677C45.1452 12.6871 45.1804 12.6972 45.2106 12.7073H45.2157Z" fill="var(--fill-0, #FAF0E6)"/>
<path id="Vector_7" d="M45.3065 27.567C45.3065 27.567 45.3014 27.567 45.2964 27.572C45.2964 27.572 45.2914 27.572 45.2863 27.5771C45.2863 27.5771 45.2813 27.5771 45.2762 27.5821C45.2561 27.5922 45.2309 27.6074 45.2108 27.6125C45.2662 27.5821 45.2914 27.567 45.3014 27.567H45.3065Z" fill="var(--fill-0, #FAF0E6)"/>
<path id="Vector_8" d="M49.024 23.7C49.024 23.7 49.0089 23.7459 48.9988 23.7715C48.9988 23.7817 48.9888 23.7919 48.9888 23.8021C48.9888 23.8021 48.9888 23.8072 48.9888 23.8123C49.014 23.7408 49.024 23.7102 49.0341 23.7H49.024Z" fill="var(--fill-0, #FAF0E6)"/>
</g>
</g>
</svg>
