<svg width="24" height="22" viewBox="0 0 24 22" fill="none" xmlns="http://www.w3.org/2000/svg">
<g filter="url(#filter0_d_4059_430)">
<path d="M12 20C10.6167 20 9.31667 19.7375 8.1 19.2125C6.88333 18.6875 5.825 17.975 4.925 17.075C4.025 16.175 3.3125 15.1167 2.7875 13.9C2.2625 12.6833 2 11.3833 2 10C2 8.61667 2.2625 7.31667 2.7875 6.1C3.3125 4.88333 4.025 3.825 4.925 2.925C5.825 2.025 6.88333 1.3125 8.1 0.7875C9.31667 0.2625 10.6167 0 12 0C13.3833 0 14.6833 0.2625 15.9 0.7875C17.1167 1.3125 18.175 2.025 19.075 2.925C19.975 3.825 20.6875 4.88333 21.2125 6.1C21.7375 7.31667 22 8.61667 22 10C22 11.3833 21.7375 12.6833 21.2125 13.9C20.6875 15.1167 19.975 16.175 19.075 17.075C18.175 17.975 17.1167 18.6875 15.9 19.2125C14.6833 19.7375 13.3833 20 12 20ZM11 17.95V16C10.45 16 9.97917 15.8042 9.5875 15.4125C9.19583 15.0208 9 14.55 9 14V13L4.2 8.2C4.15 8.5 4.10417 8.8 4.0625 9.1C4.02083 9.4 4 9.7 4 10C4 12.0167 4.6625 13.7833 5.9875 15.3C7.3125 16.8167 8.98333 17.7 11 17.95ZM17.9 15.4C18.5833 14.65 19.1042 13.8125 19.4625 12.8875C19.8208 11.9625 20 11 20 10C20 8.36667 19.5458 6.875 18.6375 5.525C17.7292 4.175 16.5167 3.2 15 2.6V3C15 3.55 14.8042 4.02083 14.4125 4.4125C14.0208 4.80417 13.55 5 13 5H11V7C11 7.28333 10.9042 7.52083 10.7125 7.7125C10.5208 7.90417 10.2833 8 10 8H8V10H14C14.2833 10 14.5208 10.0958 14.7125 10.2875C14.9042 10.4792 15 10.7167 15 11V14H16C16.4333 14 16.825 14.1292 17.175 14.3875C17.525 14.6458 17.7667 14.9833 17.9 15.4Z" fill="#10310B"/>
</g>
<defs>
<filter id="filter0_d_4059_430" x="-2" y="0" width="28" height="28" filterUnits="userSpaceOnUse" color-interpolation-filters="sRGB">
<feFlood flood-opacity="0" result="BackgroundImageFix"/>
<feColorMatrix in="SourceAlpha" type="matrix" values="0 0 0 0 0 0 0 0 0 0 0 0 0 0 0 0 0 0 127 0" result="hardAlpha"/>
<feOffset dy="4"/>
<feGaussianBlur stdDeviation="2"/>
<feComposite in2="hardAlpha" operator="out"/>
<feColorMatrix type="matrix" values="0 0 0 0 0 0 0 0 0 0 0 0 0 0 0 0 0 0 0.25 0"/>
<feBlend mode="normal" in2="BackgroundImageFix" result="effect1_dropShadow_4059_430"/>
<feBlend mode="normal" in="SourceGraphic" in2="effect1_dropShadow_4059_430" result="shape"/>
</filter>
</defs>
</svg>
